<svg xmlns="http://www.w3.org/2000/svg">
    <!-- Question Mark -->
    <symbol id="question-mark" viewBox="0 0 24 24">
        <path d="M10.97 8.265a1.45 1.45 0 00-.487.57.75.75 0 01-1.341-.67c.2-.402.513-.826.997-1.148C10.627 6.69 11.244 6.5 12 6.5c.658 0 1.369.195 1.934.619a2.45 2.45 0 011.004 2.006c0 1.033-.513 1.72-1.027 2.215-.19.183-.399.358-.579.508l-.147.123a4.329 4.329 0 00-.435.409v1.37a.75.75 0 11-1.5 0v-1.473c0-.237.067-.504.247-.736.22-.28.486-.517.718-.714l.183-.153.001-.001c.172-.143.324-.27.47-.412.368-.355.569-.676.569-1.136a.953.953 0 00-.404-.806C12.766 8.118 12.384 8 12 8c-.494 0-.814.121-1.03.265zM13 17a1 1 0 11-2 0 1 1 0 012 0z"></path>
        <path fill-rule="evenodd" d="M12 1C5.925 1 1 5.925 1 12s4.925 11 11 11 11-4.925 11-11S18.075 1 12 1zM2.5 12a9.5 9.5 0 1119 0 9.5 9.5 0 01-19 0z"></path>
    </symbol>

    <!-- Reset Alt -->
    <symbol id="reset-alt" viewBox="2 2 43 43"><path d="M20.9 41.7q-5.55-1.05-9.225-5.45T8 26.05q0-3.55 1.5-6.7Q11 16.2 13.75 14q.4-.3.95-.275.55.025.95.425.5.5.45 1.15-.05.65-.65 1.15-2.1 1.75-3.275 4.275Q11 23.25 11 26.05q0 4.7 2.9 8.175 2.9 3.475 7.35 4.475.55.1.925.55.375.45.375 1 0 .7-.5 1.125-.5.425-1.15.325Zm6.3 0q-.65.1-1.15-.325-.5-.425-.5-1.125 0-.55.375-1 .375-.45.925-.55 4.5-1 7.35-4.475 2.85-3.475 2.85-8.175 0-5.45-3.775-9.225Q29.5 13.05 24.05 13.05h-1L25 15q.4.4.4 1.05T25 17.1q-.45.45-1.1.45-.65 0-1.05-.45l-4.55-4.5q-.25-.25-.35-.5-.1-.25-.1-.55 0-.3.1-.55.1-.25.35-.5l4.55-4.55q.4-.4 1.05-.4t1.1.4q.4.45.4 1.1 0 .65-.4 1.05l-1.95 1.95h1q6.7 0 11.35 4.675 4.65 4.675 4.65 11.325 0 5.8-3.65 10.2-3.65 4.4-9.2 5.45Z"/></symbol>

    <!-- X - Icon -->
    <symbol id="x-icon" viewBox="-2 -2 26 26" fill="none" stroke="currentColor" stroke-width="4.46" stroke-linecap="round" stroke-linejoin="round" ><line x1="20" y1="2" x2="2" y2="20"></line><line x1="2" y1="2" x2="20" y2="20"></line></symbol>

    <!-- O - Icon -->
    <symbol id="o-icon" viewBox="0 0 24 24" fill="none" stroke="currentColor" stroke-width="4" stroke-linecap="round" stroke-linejoin="round"><circle cx="12" cy="12" r="10"></circle></symbol>

    <!-- Draw -->
    <symbol id="draw" viewBox="-3 -3 30 30" fill="none" stroke="white" stroke-width="3.25" stroke-linecap="round" stroke-linejoin="round" class="feather feather-slash"><circle cx="12" cy="12" r="10"></circle><line x1="4.93" y1="4.93" x2="19.07" y2="19.07"></line></symbol>

    <!-- GitHub -->
    <symbol id="github" viewBox="0 0 16 16" ><path fill-rule="evenodd" d="M8 0C3.58 0 0 3.58 0 8c0 3.54 2.29 6.53 5.47 7.59.4.07.55-.17.55-.38 0-.19-.01-.82-.01-1.49-2.01.37-2.53-.49-2.69-.94-.09-.23-.48-.94-.82-1.13-.28-.15-.68-.52-.01-.53.63-.01 1.08.58 1.23.82.72 1.21 1.87.87 2.33.66.07-.52.28-.87.51-1.07-1.78-.2-3.64-.89-3.64-3.95 0-.87.31-1.59.82-2.15-.08-.2-.36-1.02.08-2.12 0 0 .67-.21 2.2.82.64-.18 1.32-.27 2-.27.68 0 1.36.09 2 .27 1.53-1.04 2.2-.82 2.2-.82.44 1.1.16 1.92.08 2.12.51.56.82 1.27.82 2.15 0 3.07-1.87 3.75-3.65 3.95.29.25.54.73.54 1.48 0 1.07-.01 1.93-.01 2.2 0 .21.15.46.55.38A8.013 8.013 0 0016 8c0-4.42-3.58-8-8-8z"></path></symbol>

    <!-- Player -->
    <symbol id="player" viewBox="0 0 24 24"><path fill-rule="evenodd" d="M12 2.5a5.5 5.5 0 00-3.096 10.047 9.005 9.005 0 00-5.9 8.18.75.75 0 001.5.045 7.5 7.5 0 0114.993 0 .75.75 0 101.499-.044 9.005 9.005 0 00-5.9-8.181A5.5 5.5 0 0012 2.5zM8 8a4 4 0 118 0 4 4 0 01-8 0z"></path></symbol>

    <!-- Bot -->
    <symbol id="bot" viewBox="0 -3 28 28"><path d="M8.75 11a.75.75 0 01.75.75v3.5a.75.75 0 01-1.5 0v-3.5a.75.75 0 01.75-.75zm7.25.75a.75.75 0 00-1.5 0v3.5a.75.75 0 001.5 0v-3.5z"></path><path fill-rule="evenodd" d="M9.813 1a.75.75 0 000 1.5H11.5V5H4.25A2.25 2.25 0 002 7.25v5.25H.75a.75.75 0 000 1.5H2v5.75A2.25 2.25 0 004.25 22h15.5A2.25 2.25 0 0022 19.75V14h1.25a.75.75 0 000-1.5H22V7.25A2.25 2.25 0 0019.75 5H13V1.75a.75.75 0 00-.75-.75H9.812zM3.5 7.25a.75.75 0 01.75-.75h15.5a.75.75 0 01.75.75v12.5a.75.75 0 01-.75.75H4.25a.75.75 0 01-.75-.75V7.25z"></path></symbol>

    <!-- Check -->
    <symbol id="check" viewBox="0 0 48 48"><path d="M21.05 33.1 35.2 18.95l-2.3-2.25-11.85 11.85-6-6-2.25 2.25ZM24 44q-4.1 0-7.75-1.575-3.65-1.575-6.375-4.3-2.725-2.725-4.3-6.375Q4 28.1 4 24q0-4.15 1.575-7.8 1.575-3.65 4.3-6.35 2.725-2.7 6.375-4.275Q19.9 4 24 4q4.15 0 7.8 1.575 3.65 1.575 6.35 4.275 2.7 2.7 4.275 6.35Q44 19.85 44 24q0 4.1-1.575 7.75-1.575 3.65-4.275 6.375t-6.35 4.3Q28.15 44 24 44Z"/></symbol>

    <!-- Play -->
    <symbol xmlns="http://www.w3.org/2000/svg" id="play" viewBox="12 12 20 24"><path d="M20.2 32.95q-.75.45-1.45.05t-.7-1.3V16.1q0-.85.7-1.25t1.45.05l12.2 7.9q.6.4.6 1.125T32.4 25Zm-.65-9Zm0 7.5 11.95-7.5-11.95-7.55Z"/></symbol>
</svg>